<svg width="202" height="169" viewBox="0 0 202 169" fill="none" xmlns="http://www.w3.org/2000/svg">
<path d="M136.762 142.849C107.947 155.766 76.6879 157.861 46.8653 168.96C45.5534 140.182 30.8986 122.736 15.7667 99.5824C-4.4848 68.594 -12.7575 -3.71388 43.3536 0.596072C58.3104 1.74825 70.6131 12.998 79.156 25.3579C87.1663 36.9495 93.0057 50.043 96.2904 63.7656C110.427 36.186 144.217 20.3392 174.329 27.1653C179.651 28.3722 184.949 30.2677 189.189 33.7263C193.107 36.9276 195.925 41.3206 197.945 45.974C206.364 65.3769 200.782 88.9263 187.784 105.63C174.759 122.369 156.548 134.141 136.762 142.849Z" fill="#B4CEC5" fill-opacity="0.3"/>
</svg>
