<svg width="256" height="136" viewBox="0 0 256 136" fill="none" xmlns="http://www.w3.org/2000/svg">
<path d="M249.484 29.1216L243.945 35.1209L237.946 29.5823L243.484 23.5831L249.484 29.1216ZM80.4984 17.8796L80.8893 16.9592L80.4984 17.8796ZM243.755 30.3512C241.193 30.4535 238.445 30.5495 235.535 30.6367L235.475 28.6376C238.379 28.5506 241.121 28.4548 243.675 28.3528L243.755 30.3512ZM219.106 30.9949C213.869 31.0693 208.352 31.1112 202.649 31.1108L202.649 29.1108C208.342 29.1112 213.849 29.0694 219.077 28.9951L219.106 30.9949ZM186.191 30.9896C180.764 30.909 175.256 30.7857 169.737 30.6121L169.8 28.6131C175.307 28.7863 180.804 28.9094 186.221 28.9898L186.191 30.9896ZM153.292 29.937C147.727 29.6511 142.224 29.3054 136.856 28.8921L137.009 26.898C142.358 27.3099 147.845 27.6545 153.395 27.9396L153.292 29.937ZM120.45 27.3536C114.688 26.7031 109.207 25.9513 104.121 25.0857L104.456 23.1141C109.498 23.9722 114.942 24.719 120.674 25.3662L120.45 27.3536ZM87.9519 21.5251C85.054 20.6898 82.4233 19.7836 80.1075 18.8001L80.8893 16.9592C83.1136 17.9039 85.6652 18.7845 88.5058 19.6033L87.9519 21.5251ZM80.1075 18.8001C78.0262 17.9161 75.9257 17.0767 73.8138 16.2799L74.5198 14.4087C76.6559 15.2146 78.7817 16.0641 80.8893 16.9592L80.1075 18.8001ZM60.9516 11.96C56.5322 10.6445 52.1334 9.49635 47.8256 8.49747L48.2774 6.54917C52.6216 7.55649 57.0603 8.71496 61.5222 10.0431L60.9516 11.96ZM34.5088 5.80116C29.7578 4.97405 25.239 4.32776 21.0682 3.83256L21.304 1.84651C25.5088 2.34575 30.0634 2.99718 34.8519 3.83079L34.5088 5.80116ZM7.53761 2.63911C4.92227 2.49773 2.65042 2.43591 0.788025 2.43591V0.435913C2.69246 0.435913 5.00085 0.499055 7.64558 0.642029L7.53761 2.63911Z" fill="#120F1C"/>
<path d="M255.543 94.2897L250.242 100.5L244.032 95.1993L249.332 88.9889L255.543 94.2897ZM126.046 121.896L126.967 122.285L126.046 121.896ZM249.866 95.7414C247.363 95.9392 244.692 96.1648 241.882 96.4178L241.703 94.4258C244.519 94.1722 247.198 93.946 249.708 93.7476L249.866 95.7414ZM225.927 98.0052C220.787 98.5634 215.43 99.1897 209.985 99.8817L209.733 97.8977C215.191 97.204 220.56 96.5764 225.711 96.0169L225.927 98.0052ZM194.094 102.066C188.745 102.86 183.428 103.715 178.261 104.628L177.913 102.658C183.1 101.742 188.435 100.884 193.801 100.087L194.094 102.066ZM162.547 107.707C156.917 108.939 151.683 110.248 147.041 111.631L146.47 109.714C151.172 108.313 156.456 106.992 162.119 105.753L162.547 107.707ZM132.335 117.41C129.388 119.088 127.622 120.736 126.967 122.285L125.125 121.507C126.046 119.326 128.308 117.401 131.346 115.672L132.335 117.41ZM126.967 122.285C126.058 124.438 123.959 126.161 121.177 127.568L120.274 125.784C122.9 124.455 124.49 123.011 125.125 121.507L126.967 122.285ZM106.993 131.859C102.617 132.695 97.7055 133.362 92.4489 133.887L92.2503 131.897C97.4661 131.376 102.316 130.717 106.618 129.895L106.993 131.859ZM77.8552 134.961C73.0777 135.207 68.1682 135.369 63.2347 135.463L63.1967 133.463C68.1119 133.37 72.9996 133.208 77.7527 132.964L77.8552 134.961ZM48.6189 135.554C43.622 135.525 38.7101 135.439 33.9988 135.312L34.0529 133.313C38.7509 133.44 43.6486 133.525 48.6304 133.554L48.6189 135.554ZM19.405 134.764C16.8397 134.64 14.3999 134.506 12.1133 134.366L12.2354 132.37C14.5132 132.509 16.9445 132.643 19.5018 132.767L19.405 134.764Z" fill="#120F1C"/>
</svg>
