<svg width="146" height="26" viewBox="0 0 146 26" fill="none" xmlns="http://www.w3.org/2000/svg">
<path d="M0.329063 24.9434H6.44906V18.2834C12.9291 18.2834 17.2491 14.7914 17.2491 9.28336C17.2491 4.24336 13.6491 0.787359 8.78906 0.247358C8.03306 0.175359 7.24106 0.103357 4.28906 0.103357H0.329063V24.9434ZM6.44906 12.5234V5.86336C8.96906 5.86336 11.1291 6.69136 11.1291 9.21136C11.1291 11.7314 8.96906 12.5234 6.44906 12.5234ZM24.203 19.0034V0.103357H18.083V24.9434H30.323V19.0034H24.203ZM31.3017 24.9434H37.4217V0.103357H31.3017V24.9434ZM38.5088 24.9434H44.6288V6.22336C46.9688 6.33136 49.6688 7.98736 49.6688 11.4434V24.9434H55.2848V11.4434C55.2848 7.98736 57.9848 6.33136 60.3248 6.22336V24.9434H66.4448V0.103357H60.3248C56.9767 0.103357 53.7368 1.90336 52.4768 3.70336C51.2168 1.90336 47.9768 0.103357 44.6288 0.103357H38.5088V24.9434ZM67.5127 24.9434H73.6327V18.2834C80.1127 18.2834 84.4327 14.7914 84.4327 9.28336C84.4327 4.24336 80.8327 0.787359 75.9727 0.247358C75.2167 0.175359 74.4247 0.103357 71.4727 0.103357H67.5127V24.9434ZM73.6327 12.5234V5.86336C76.1527 5.86336 78.3127 6.69136 78.3127 9.21136C78.3127 11.7314 76.1527 12.5234 73.6327 12.5234ZM91.3866 19.0034V0.103357H85.2666V24.9434H97.5066V19.0034H91.3866ZM107.062 25.3034C111.31 25.3034 115.99 22.4234 115.99 15.5834V0.103357H109.87V15.5834C109.87 17.9234 109.15 19.3634 107.062 19.3634C104.974 19.3634 104.254 17.9234 104.254 15.5834V0.103357H98.1338V15.5834C98.1338 22.4234 102.814 25.3034 107.062 25.3034ZM117.083 24.9434H123.203V6.22336C125.543 6.33136 128.243 7.98736 128.243 11.4434V24.9434H133.859V11.4434C133.859 7.98736 136.559 6.33136 138.899 6.22336V24.9434H145.019V0.103357H138.899C135.551 0.103357 132.311 1.90336 131.051 3.70336C129.791 1.90336 126.551 0.103357 123.203 0.103357H117.083V24.9434Z" fill="#B4CEC5"/>
</svg>
